<svg xmlns="http://www.w3.org/2000/svg" width="17" height="17" viewBox="0 0 17 17">
  <defs>
    <style>
      .cls-1 {
        fill: #bb9c66;
        fill-rule: evenodd;
      }
    </style>
  </defs>
  <path id="hammer" class="cls-1" d="M1329.33,158.819l4.85,4.854-2.43,2.427-4.85-4.854Zm6.06,4.854,0.61,0.607-3.64,3.64-0.61-.607Zm-15.77,7.281,2.43,2.427-0.61.607-2.43-2.427Zm9.1-13.955,0.61,0.607-3.64,3.64-0.61-.607Zm-1.21,6.068,2.42,2.426-0.6.607-2.43-2.427Zm-6.07,6.066,2.43,2.428-0.61.606-2.43-2.426Zm6.67-5.46,1.22,1.214-7.28,7.28-1.22-1.213Z" transform="translate(-1319 -157)"/>
</svg>
