<svg xmlns="http://www.w3.org/2000/svg" xmlns:xlink="http://www.w3.org/1999/xlink" width="16.22" height="15.25" viewBox="0 0 16.22 15.25">
  <defs>
    <style>
      .cls-1 {
        filter: url(#filter);
      }

      .cls-2 {
        fill: none;
        stroke: #fff;
        stroke-width: 2px;
      }

      .cls-2, .cls-3 {
        fill-rule: evenodd;
      }

      .cls-3 {
        fill: #bb9c66;
      }
    </style>
    <filter id="filter" filterUnits="userSpaceOnUse">
      <feFlood result="flood" flood-color="#bb9c66"/>
      <feComposite result="composite" operator="in" in2="SourceGraphic"/>
      <feBlend result="blend" in2="SourceGraphic"/>
    </filter>
  </defs>
  <g id="key" class="cls-1">
    <path class="cls-2" d="M1325.88,114.879c1.17,1.172,2.29,3.95,1.12,5.121s-4.19.294-5.36-.878A3,3,0,0,1,1325.88,114.879Zm4.24,4.243a3,3,0,0,1-4.24,4.242c-1.17-1.171-2.05-4.192-.88-5.364S1328.95,117.95,1330.12,119.122Z" transform="translate(-1319.78 -110)"/>
    <path class="cls-3" d="M1325,120c0.78,0.781.25,2.584-.54,3.364a2,2,0,0,1-2.82-2.828C1322.42,119.755,1324.22,119.219,1325,120Zm3-1-2-2,7-7,2,2Zm5-7,1-1,2,2-1,1Zm-2,2,1-1,2,2-1,1Z" transform="translate(-1319.78 -110)"/>
  </g>
</svg>
