<svg width="73" height="72" viewBox="0 0 73 72" fill="none" xmlns="http://www.w3.org/2000/svg">
<path d="M24.6875 14.8531C17.178 17.6019 13.2294 25.7337 15.8835 32.9842C18.5375 40.2347 26.8028 43.8957 34.3123 41.1469C41.8217 38.398 45.7704 30.2662 43.1163 23.0157C40.4623 15.7652 32.197 12.1042 24.6875 14.8531ZM31.9061 34.5734C28.1514 35.9478 24.0187 34.1173 22.6917 30.4921C21.3647 26.8668 23.339 22.8009 27.0937 21.4265C30.8484 20.0521 34.9811 21.8826 36.3081 25.5078C37.6351 29.1331 35.6608 33.199 31.9061 34.5734Z" fill="white"/>
<path d="M27.4338 70.3403C28.0367 70.7693 28.7591 71 29.5 71C30.2409 71 30.9633 70.7693 31.5662 70.3403C32.6492 69.577 58.103 51.2624 57.9997 28.4002C57.9997 12.7411 45.214 0 29.5 0C13.786 0 1.00031 12.7411 1.00031 28.3825C0.897002 51.2624 26.3508 69.577 27.4338 70.3403ZM29.5 7.10006C41.2882 7.10006 50.8748 16.6532 50.8748 28.418C50.9496 44.173 35.2427 58.3199 29.5 62.9598C23.7609 58.3163 8.05042 44.1659 8.12524 28.4002C8.12524 16.6532 17.7118 7.10006 29.5 7.10006Z" fill="white"/>
</svg>
